<svg width="1280" height="720" xmlns="http://www.w3.org/2000/svg" xmlns:xlink="http://www.w3.org/1999/xlink" overflow="hidden"><defs><clipPath id="clip0"><rect x="0" y="0" width="1280" height="720"/></clipPath></defs><g clip-path="url(#clip0)"><rect x="0" y="0" width="1280" height="720" fill="#FFFFFF"/><path d="M459.5 229.5C459.5 147.762 525.762 81.5001 607.5 81.5001 689.238 81.5001 755.5 147.762 755.5 229.5 755.5 311.238 689.238 377.5 607.5 377.5 525.762 377.5 459.5 311.238 459.5 229.5Z" stroke="#FFFFFF" stroke-width="1.33333" stroke-miterlimit="8" fill="#5B9BD5" fill-rule="evenodd" fill-opacity="0.501961"/><text font-family="Calibri,Calibri_MSFontService,sans-serif" font-weight="400" font-size="16" transform="translate(498.588 161)">VIPP5 (volgens</text><text font-family="Calibri,Calibri_MSFontService,sans-serif" font-weight="400" font-size="16" transform="translate(597.654 161)">staatscourant</text><text font-family="Calibri,Calibri_MSFontService,sans-serif" font-weight="400" font-size="16" transform="translate(685.728 161)">)</text><text font-family="Calibri,Calibri_MSFontService,sans-serif" font-weight="400" font-size="14" transform="translate(498.588 184)">•</text><text fill="#0563C1" font-family="Calibri,Calibri_MSFontService,sans-serif" font-weight="400" font-size="14" transform="translate(505.561 184)">VIPP5 Staatscourant stcrt</text><text fill="#0563C1" font-family="Calibri,Calibri_MSFontService,sans-serif" font-weight="400" font-size="14" transform="translate(649.548 184)">-</text><text fill="#0563C1" font-family="Calibri,Calibri_MSFontService,sans-serif" font-weight="400" font-size="14" transform="translate(653.834 184)">2020</text><text fill="#0563C1" font-family="Calibri,Calibri_MSFontService,sans-serif" font-weight="400" font-size="14" transform="translate(682.208 184)">-</text><text fill="#0563C1" font-family="Calibri,Calibri_MSFontService,sans-serif" font-weight="400" font-size="14" transform="translate(686.494 184)">7935</text><path d="M505.588 186.097 557.838 186.097 610.088 186.097 662.338 186.097 714.588 186.097 714.588 187.097 662.338 187.097 610.088 187.097 557.838 187.097 505.588 187.097Z" fill="#0563C1" fill-rule="evenodd"/><path d="M590.5 360.5C590.5 278.762 656.538 212.5 738 212.5 819.462 212.5 885.5 278.762 885.5 360.5 885.5 442.238 819.462 508.5 738 508.5 656.538 508.5 590.5 442.238 590.5 360.5Z" stroke="#FFFFFF" stroke-width="1.33333" stroke-miterlimit="8" fill="#52CAB8" fill-rule="evenodd" fill-opacity="0.501961"/><text font-family="Calibri,Calibri_MSFontService,sans-serif" font-weight="400" font-size="16" transform="translate(749.012 296)">Wat kan het XIS</text><text font-family="Calibri,Calibri_MSFontService,sans-serif" font-weight="400" font-size="16" transform="translate(749.012 314)">nu</text><text font-family="Calibri,Calibri_MSFontService,sans-serif" font-weight="400" font-size="14" transform="translate(749.012 337)">•</text><text font-family="Calibri,Calibri_MSFontService,sans-serif" font-weight="400" font-size="14" transform="translate(755.986 337)">Epic</text><text font-family="Calibri,Calibri_MSFontService,sans-serif" font-weight="400" font-size="14" transform="translate(779.306 337)">: FHIR STU3</text><text font-family="Calibri,Calibri_MSFontService,sans-serif" font-weight="400" font-size="14" transform="translate(755.012 352)">Provider</text><text font-family="Calibri,Calibri_MSFontService,sans-serif" font-weight="400" font-size="14" transform="translate(803.239 352)">-</text><text font-family="Calibri,Calibri_MSFontService,sans-serif" font-weight="400" font-size="14" transform="translate(807.526 352)">facing</text><text fill="#0563C1" font-family="Calibri,Calibri_MSFontService,sans-serif" font-weight="400" font-size="14" transform="translate(755.012 367)">https://fhir.epic.co</text><path d="M755.012 368.58 782.012 368.58 809.012 368.58 836.012 368.58 863.012 368.58 863.012 369.58 836.012 369.58 809.012 369.58 782.012 369.58 755.012 369.58Z" fill="#0563C1" fill-rule="evenodd"/><text fill="#0563C1" font-family="Calibri,Calibri_MSFontService,sans-serif" font-weight="400" font-size="14" transform="translate(755.012 383)">m/Specifications</text><path d="M755.012 384.58 778.762 384.58 802.512 384.58 826.262 384.58 850.012 384.58 850.012 385.58 826.262 385.58 802.512 385.58 778.762 385.58 755.012 385.58Z" fill="#0563C1" fill-rule="evenodd"/><text font-family="Calibri,Calibri_MSFontService,sans-serif" font-weight="400" font-size="14" transform="translate(749.012 401)">•</text><text font-family="Calibri,Calibri_MSFontService,sans-serif" font-weight="400" font-size="14" transform="translate(755.986 401)">ChipSoft</text><text font-family="Calibri,Calibri_MSFontService,sans-serif" font-weight="400" font-size="14" transform="translate(804.146 401)">:</text><text fill="#0563C1" font-family="Calibri,Calibri_MSFontService,sans-serif" font-weight="400" font-size="14" transform="translate(755.012 416)">Zorgplatform</text><path d="M755.012 417.58 780.012 417.58 805.012 417.58 830.012 417.58 830.012 418.58 805.012 418.58 780.012 418.58 755.012 418.58Z" fill="#0563C1" fill-rule="evenodd"/><text font-family="Calibri,Calibri_MSFontService,sans-serif" font-weight="400" font-size="14" transform="translate(749.012 434)">•</text><text font-family="Calibri,Calibri_MSFontService,sans-serif" font-weight="400" font-size="14" transform="translate(755.986 434)">Topicus</text><text font-family="Calibri,Calibri_MSFontService,sans-serif" font-weight="400" font-size="14" transform="translate(799.499 434)">:</text><path d="M459.5 491.5C459.5 409.762 525.762 343.5 607.5 343.5 689.238 343.5 755.5 409.762 755.5 491.5 755.5 573.238 689.238 639.5 607.5 639.5 525.762 639.5 459.5 573.238 459.5 491.5Z" stroke="#FFFFFF" stroke-width="1.33333" stroke-miterlimit="8" fill="#49BF64" fill-rule="evenodd" fill-opacity="0.501961"/><text font-family="Calibri,Calibri_MSFontService,sans-serif" font-weight="400" font-size="16" transform="translate(496.054 528)">Wat kan de organisatie met de XIS</text><text font-family="Calibri,Calibri_MSFontService,sans-serif" font-weight="400" font-size="14" transform="translate(496.054 551)">•</text><text font-family="Calibri,Calibri_MSFontService,sans-serif" font-weight="400" font-size="14" transform="translate(503.028 551)">UMCG</text><text font-family="Calibri,Calibri_MSFontService,sans-serif" font-weight="400" font-size="14" transform="translate(543.441 551)">Epic</text><text font-family="Calibri,Calibri_MSFontService,sans-serif" font-weight="400" font-size="14" transform="translate(566.761 551)">:</text><text font-family="Calibri,Calibri_MSFontService,sans-serif" font-weight="400" font-size="14" transform="translate(573.674 551)">SMoR</text><text font-family="Calibri,Calibri_MSFontService,sans-serif" font-weight="400" font-size="14" transform="translate(610.221 551)">VIPP5 module 1</text><text font-family="Calibri,Calibri_MSFontService,sans-serif" font-weight="400" font-size="14" transform="translate(496.054 569)">•</text><text font-family="Calibri,Calibri_MSFontService,sans-serif" font-weight="400" font-size="14" transform="translate(503.028 569)">UMCG</text><text font-family="Calibri,Calibri_MSFontService,sans-serif" font-weight="400" font-size="14" transform="translate(543.441 569)">Epic</text><text font-family="Calibri,Calibri_MSFontService,sans-serif" font-weight="400" font-size="14" transform="translate(566.761 569)">:</text><text font-family="Calibri,Calibri_MSFontService,sans-serif" font-weight="400" font-size="14" transform="translate(573.674 569)">Zibs</text><text font-family="Calibri,Calibri_MSFontService,sans-serif" font-weight="400" font-size="14" transform="translate(599.434 569)">van de</text><text font-family="Calibri,Calibri_MSFontService,sans-serif" font-weight="400" font-size="14" transform="translate(640.468 569)">BgZ</text><text font-family="Calibri,Calibri_MSFontService,sans-serif" font-weight="400" font-size="14" transform="translate(664.388 569)">(</text><text font-family="Calibri,Calibri_MSFontService,sans-serif" font-weight="400" font-size="14" transform="translate(668.634 569)">ipv</text><text font-family="Calibri,Calibri_MSFontService,sans-serif" font-weight="400" font-size="14" transform="translate(688.688 569)">BgZ</text><text font-family="Calibri,Calibri_MSFontService,sans-serif" font-weight="400" font-size="14" transform="translate(502.054 584)">zibs</text><text font-family="Calibri,Calibri_MSFontService,sans-serif" font-weight="400" font-size="14" transform="translate(523.628 584)">)</text><path d="M328.5 360.5C328.5 278.762 394.762 212.5 476.5 212.5 558.238 212.5 624.5 278.762 624.5 360.5 624.5 442.238 558.238 508.5 476.5 508.5 394.762 508.5 328.5 442.238 328.5 360.5Z" stroke="#FFFFFF" stroke-width="1.33333" stroke-miterlimit="8" fill="#70AD47" fill-rule="evenodd" fill-opacity="0.501961"/><text font-family="Calibri,Calibri_MSFontService,sans-serif" font-weight="400" font-size="16" transform="translate(361.433 335)">MedMij</text><text font-family="Calibri,Calibri_MSFontService,sans-serif" font-weight="400" font-size="16" transform="translate(416.28 335)">specs</text><text font-family="Calibri,Calibri_MSFontService,sans-serif" font-weight="400" font-size="14" transform="translate(361.433 358)">1.</text><text fill="#0563C1" font-family="Calibri,Calibri_MSFontService,sans-serif" font-weight="400" font-size="14" transform="translate(372.06 358)">BgZ 2017</text><path d="M372.433 360.143 398.433 360.143 424.433 360.143 424.433 361.143 398.433 361.143 372.433 361.143Z" fill="#0563C1" fill-rule="evenodd"/><text font-family="Calibri,Calibri_MSFontService,sans-serif" font-weight="400" font-size="14" transform="translate(361.433 376)">2.</text><text fill="#0563C1" font-family="Calibri,Calibri_MSFontService,sans-serif" font-weight="400" font-size="14" transform="translate(372.06 376)">BgZ</text><text fill="#0563C1" font-family="Calibri,Calibri_MSFontService,sans-serif" font-weight="400" font-size="14" transform="translate(395.98 376)">2017 FHIR</text><path d="M372.433 378.143 399.433 378.143 426.433 378.143 453.433 378.143 453.433 379.143 426.433 379.143 399.433 379.143 372.433 379.143Z" fill="#0563C1" fill-rule="evenodd"/><text font-family="Calibri,Calibri_MSFontService,sans-serif" font-weight="400" font-size="14" transform="translate(361.433 394)">3.</text><text fill="#0563C1" font-family="Calibri,Calibri_MSFontService,sans-serif" font-weight="400" font-size="14" transform="translate(372.06 394)">PDF/a</text><path d="M372.433 396.143 389.433 396.143 406.433 396.143 406.433 397.143 389.433 397.143 372.433 397.143Z" fill="#0563C1" fill-rule="evenodd"/><text font-family="Calibri,Calibri_MSFontService,sans-serif" font-weight="400" font-size="24" transform="translate(592.548 367)">ZV</text></g></svg>